<?xml version="1.0" encoding="utf-8"?>
<!-- Generator: Adobe Illustrator 19.0.0, SVG Export Plug-In . SVG Version: 6.00 Build 0)  -->
<svg version="1.1" id="Erase" xmlns="http://www.w3.org/2000/svg" xmlns:xlink="http://www.w3.org/1999/xlink" x="0px" y="0px"
	 viewBox="-501 375 20 20" style="enable-background:new -501 375 20 20;" xml:space="preserve">
<style type="text/css">
	.st0{fill:#808080;}
</style>
<path class="st0" d="M-483,378h-9.6c-0.4,0-1.1,0.2-1.4,0.5l-6.8,5.9c-0.3,0.3-0.3,0.8,0,1.1l6.8,5.9c0.3,0.3,1,0.5,1.4,0.5h9.6
	c1.1,0,2-0.9,2-2v-10C-481,378.9-481.9,378-483,378z M-485.8,389l-2.6-2.6l-2.6,2.6l-1.4-1.4l2.6-2.6l-2.6-2.6l1.4-1.4l2.6,2.6
	l2.6-2.6l1.4,1.4l-2.6,2.6l2.6,2.6L-485.8,389z"/>
</svg>
